
<svg version="1.1" id="Capa_1" xmlns="http://www.w3.org/2000/svg" xmlns:xlink="http://www.w3.org/1999/xlink" x="0px"
	y="0px" viewBox="0 0 634 634" style="enable-background:new 0 0 634 634;" xml:space="preserve">

	<style type="text/css">
		@import url(style.css);		
	</style>

	<circle id="red-circle2" class="red secund-circle" cx="305.9" cy="276.63" r="251.53" />
	<circle id="white-circle" class="white secund-circle" cx="305.9" cy="276.63" r="218.62" />
	<circle id="red-circle" class="red secund-circle" cx="305.9" cy="276.63" r="188.23" />
	<circle id="blue-circle" class="blue" cx="305.9" cy="276.63" r="154.25" />

	<polygon id="start" class="start" points="305.9,134.14 338.09,233.22 442.27,233.22 357.99,294.45 390.18,393.53 305.9,332.3 
	221.61,393.53 253.81,294.45 169.52,233.22 273.7,233.22 " />

	<g id="capitain-text" class="text first-circle">
		<g>
			<path d="M67.78,556.9l-12.62,2.89l4.26-14.37h-4.41c-0.71,0-1.23,0.11-1.56,0.34c-0.33,0.23-0.6,0.7-0.8,1.41
			l-15.21,51.87c-0.3,1.01-0.25,1.72,0.15,2.13c0.41,0.41,1.06,0.61,1.98,0.61h13.84l-6.39,11.79H32.11c-1.47,0-2.83-0.21-4.07-0.65
			c-1.24-0.43-2.28-1.1-3.12-2.02c-0.84-0.91-1.38-2.09-1.64-3.54c-0.25-1.44-0.08-3.18,0.53-5.21l17.87-60.99
			c0.71-2.33,1.74-3.89,3.08-4.68c1.34-0.79,3.08-1.18,5.21-1.18h24.18L67.78,556.9z" />
			<path d="M89.61,609.07l2.05-6.84H73.64L55.38,627.4H40.25l67.76-92.1h16.2l-17.95,61.37l-8.97-13.69l6.08-21.07
			l-22.13,30.27h13.31l2.05-6.77l8.21,12.4L89.61,609.07z M101.17,613.56H88.31l0.53-1.67l16.58-12.4L101.17,613.56z" />
			<path d="M136.83,579.87c0.71,0,1.33-0.19,1.86-0.57c0.53-0.38,1-1.18,1.41-2.4l8.06-27.53
			c0.56-2.03-0.13-3.04-2.05-3.04h-22.89l7-11.03h24.87c2.89,0,4.87,0.86,5.93,2.59c1.06,1.72,1.22,3.88,0.46,6.46l-11.03,37.04
			c-0.25,0.81-0.58,1.71-0.99,2.7c-0.41,0.99-1,1.92-1.79,2.78c-0.79,0.86-1.8,1.57-3.04,2.13c-1.24,0.56-2.8,0.84-4.68,0.84
			l-10.57-0.08l-7.07,23.8h-12.78l19.24-65.4h12.78l-9.28,31.71H136.83z" />
			<path 
				d="M187.63,548.15l-19.32,65.4h-12.78l19.24-65.4H187.63z M163.6,546.33l4.79-11.03h34.3l-3.27,11.03H163.6z" />
			<path d="M206.72,609.07l2.05-6.84h-18.02L172.5,627.4h-15.13l67.76-92.1h16.2l-17.95,61.37l-8.97-13.69l6.08-21.07
			l-22.13,30.27h13.31l2.05-6.77l8.21,12.4L206.72,609.07z M218.28,613.56h-12.85l0.53-1.67l16.58-12.4L218.28,613.56z" />
			<path d="M262.31,548.15l-15.82,53.62h6.84l-3.5,11.79h-25.48l3.42-11.79h5.86l15.82-53.62H262.31z M242.31,546.33
			l4.56-11.03h26.08l-3.27,11.03H242.31z" />
			<path d="M271.36,613.56h-12.78l19.24-65.4h12.78L271.36,613.56z M296.54,548.99c0.51-1.77-0.2-2.66-2.13-2.66h-22.13
			l7-11.03h24.72c2.89,0,4.92,0.86,6.08,2.59c1.17,1.72,1.37,3.88,0.61,6.46l-20.38,69.21h-12.78L296.54,548.99z" />
			<path d="M338.21,609.07l2.05-6.84h-18.02l-18.25,25.17h-15.13l67.76-92.1h16.2l-17.95,61.37l-8.97-13.69l6.08-21.07
			l-22.13,30.27h13.31l2.05-6.77l8.21,12.4L338.21,609.07z M349.77,613.56h-12.85l0.53-1.67l16.58-12.4L349.77,613.56z" />
			<path d="M370.91,613.56h-12.78l19.24-65.4h12.78L370.91,613.56z M415.02,548.99c0.51-1.77-0.2-2.66-2.13-2.66h-41.07
			l7-11.03h43.65c2.89,0,4.92,0.86,6.08,2.59c1.17,1.72,1.37,3.88,0.61,6.46l-20.38,69.21h-12.78L415.02,548.99z M389.85,613.56
			h-12.78l19.24-65.4h12.78L389.85,613.56z" />
			<path d="M449.24,548.15l-5.86,20h12.24l-3.27,11.26h-12.32l-6.54,22.36h13.61l-6.46,11.79h-23.42l19.24-65.4H449.24z
			 M461.94,546.33h-31.03l7-11.03h27.23L461.94,546.33z" />
			<path d="M480.42,571.58c0.71,0,1.34-0.19,1.9-0.57c0.56-0.38,1.01-1.18,1.37-2.4l5.63-19.24
			c0.56-2.03-0.13-3.04-2.05-3.04h-22.89l7-11.03h24.87c2.89,0,4.87,0.86,5.93,2.59c1.07,1.72,1.22,3.88,0.46,6.46l-8.59,28.75
			c-0.36,1.17-1.01,2.22-1.98,3.16c-0.96,0.94-2.43,1.41-4.41,1.41c1.83,0.15,2.93,1.04,3.31,2.66c0.38,1.62,0.24,3.55-0.42,5.78
			l-8.14,27.45h-12.78l8.82-29.81c0.2-0.71,0.18-1.27-0.08-1.67c-0.25-0.41-0.79-0.61-1.6-0.61h-3.8l-9.51,32.09h-12.78l19.24-65.4
			h12.78l-6.84,23.42H480.42z" />
			<path d="M525.75,548.15l-15.82,53.62h6.84l-3.5,11.79H487.8l3.42-11.79h5.86l15.82-53.62H525.75z M505.75,546.33
			l4.56-11.03h26.08l-3.27,11.03H505.75z" />
			<path d="M565.6,556.9l-12.62,2.89l4.26-14.37h-4.41c-0.71,0-1.23,0.11-1.56,0.34c-0.33,0.23-0.6,0.7-0.8,1.41
			l-15.21,51.87c-0.3,1.01-0.25,1.72,0.15,2.13c0.41,0.41,1.06,0.61,1.98,0.61h13.84l-6.39,11.79h-14.91
			c-1.47,0-2.83-0.21-4.07-0.65c-1.24-0.43-2.28-1.1-3.12-2.02c-0.84-0.91-1.38-2.09-1.63-3.54c-0.25-1.44-0.08-3.18,0.53-5.21
			l17.87-60.99c0.71-2.33,1.74-3.89,3.08-4.68c1.34-0.79,3.08-1.18,5.21-1.18h24.18L565.6,556.9z" />
			<path d="M587.42,609.07l2.05-6.84h-18.02L553.2,627.4h-15.13l67.76-92.1h16.2l-17.95,61.37l-8.97-13.69l6.08-21.07
			l-22.13,30.27h13.31l2.05-6.77l8.21,12.4L587.42,609.07z M598.98,613.56h-12.85l0.53-1.67l16.58-12.4L598.98,613.56z" />
		</g>
	</g>
</svg>