<?xml version="1.0" encoding="utf-8"?>

<svg version="1.1" id="Capa_1" xmlns="http://www.w3.org/2000/svg" xmlns:xlink="http://www.w3.org/1999/xlink" x="0px" y="0px"
	 viewBox="0 0 1024 500" style="enable-background:new 0 0 1024 500;" xml:space="preserve">

	 <style type="text/css">
		@import url(style.css);
	</style>
    
	<circle class="redCircle1 objeto" id="redCircle1" cx="512.21" cy="250.46" r="243.79"/>
    
	<circle class="whiteCircle objeto" id="whiteCircle" cx="512.21" cy="250.46" r="211.89"/>
    
	<circle class="redCircle2 objeto" id="redCircle2" cx="512.21" cy="250.46" r="182.43"/>
    
	<circle class="blueCircle objeto" id="blueCircle" cx="512.21" cy="250.46" r="149.5"/>
    
	<polygon class="start" id="start" points="512.21,112.36 543.41,208.39 644.39,208.39 562.7,267.73 593.9,363.76 512.21,304.42 430.52,363.76 
	461.73,267.73 380.03,208.39 481.01,208.39 "/>
    
	<g id="capitainText" class="capitainText">
        <g>
            <path d="M92.12,210.14l-20.81,4.76l7.03-23.69h-7.27c-1.17,0-2.02,0.18-2.58,0.56c-0.54,0.38-0.99,1.16-1.31,2.32l-25.08,85.53
			c-0.5,1.66-0.41,2.84,0.24,3.51c0.68,0.68,1.75,1.01,3.27,1.01h22.82l-10.54,19.44H33.31c-2.43,0-4.66-0.35-6.71-1.07
			c-2.05-0.71-3.76-1.81-5.14-3.33c-1.39-1.51-2.28-3.45-2.7-5.84c-0.41-2.37-0.13-5.25,0.87-8.59l29.46-100.56
			c1.17-3.84,2.87-6.41,5.08-7.72c2.21-1.3,5.08-1.95,8.59-1.95h39.87L92.12,210.14z"/>
            <path d="M128.11,296.16l3.38-11.28h-29.72l-30.11,41.5H46.73l111.73-151.86h26.72l-29.6,101.19l-14.79-22.57l10.03-34.74
			l-36.49,49.91h21.94l3.38-11.16l13.54,20.45L128.11,296.16z M147.17,303.56h-21.2l0.87-2.76l27.34-20.45L147.17,303.56z"/>
            <path d="M205.97,248.01c1.17,0,2.19-0.32,3.06-0.94c0.87-0.63,1.65-1.95,2.32-3.95l13.29-45.39c0.92-3.35-0.21-5.01-3.38-5.01
			h-37.74l11.54-18.19h41.01c4.76,0,8.03,1.42,9.77,4.27c1.75,2.84,2.01,6.39,0.76,10.65l-18.19,61.07
			c-0.41,1.34-0.95,2.82-1.63,4.45c-0.68,1.63-1.65,3.17-2.95,4.58c-1.3,1.42-2.97,2.59-5.01,3.51s-4.61,1.39-7.72,1.39l-17.43-0.13
			l-11.66,39.25h-21.08l31.72-107.84h21.08l-15.3,52.29L205.97,248.01L205.97,248.01z"/>
            <path d="M289.73,195.72l-31.86,107.84H236.8l31.72-107.84H289.73z M250.11,192.72l7.9-18.19h56.56l-5.4,18.19H250.11z"/>
            <path d="M321.21,296.16l3.38-11.28h-29.72l-30.1,41.5h-24.94l111.73-151.86h26.72l-29.6,101.19l-14.79-22.57l10.03-34.74
			l-36.49,49.91h21.94l3.38-11.16l13.54,20.45L321.21,296.16z M340.27,303.56h-21.19l0.87-2.76l27.34-20.45L340.27,303.56z"/>
            <path d="M412.87,195.72l-26.09,88.41h11.28l-5.77,19.44h-42.01l5.64-19.44h9.66l26.09-88.41H412.87z M379.89,192.72l7.52-18.19h43
			l-5.4,18.19H379.89z"/>
            <path d="M427.79,303.56h-21.08l31.72-107.84h21.08L427.79,303.56z M469.31,197.09c0.84-2.92-0.33-4.39-3.51-4.39h-36.49
			l11.54-18.19h40.76c4.76,0,8.11,1.42,10.03,4.27c1.93,2.84,2.26,6.39,1.01,10.65l-33.61,114.12h-21.08L469.31,197.09z"/>
            <path d="M538.02,296.16l3.38-11.28h-29.72l-30.1,41.5h-24.94l111.73-151.86h26.72l-29.6,101.19l-14.79-22.57l10.03-34.74
			l-36.49,49.91h21.94l3.38-11.16l13.54,20.45L538.02,296.16z M557.08,303.56h-21.19l0.87-2.76l27.34-20.45L557.08,303.56z"/>
            <path d="M591.94,303.56h-21.08l31.72-107.84h21.08L591.94,303.56z M664.67,197.09c0.84-2.92-0.33-4.39-3.51-4.39h-67.72
			l11.54-18.19h71.97c4.76,0,8.11,1.42,10.03,4.27c1.93,2.84,2.26,6.39,1.01,10.65l-33.61,114.12h-21.08L664.67,197.09z
			 M623.17,303.56h-21.08l31.72-107.84h21.08L623.17,303.56z"/>
            <path d="M721.09,195.72l-9.66,32.98h20.18l-5.4,18.56h-20.31l-10.78,36.87h22.44l-10.65,19.44H668.3l31.72-107.84h21.08V195.72z
			 M742.03,192.72h-51.16l11.54-18.19h44.9L742.03,192.72z"/>
            <path d="M772.51,234.35c1.17,0,2.21-0.32,3.14-0.94c0.92-0.63,1.66-1.95,2.26-3.95l9.29-31.72c0.92-3.35-0.21-5.01-3.38-5.01
			h-37.74l11.54-18.19h41.01c4.76,0,8.03,1.42,9.77,4.27c1.76,2.84,2.01,6.39,0.76,10.65l-14.16,47.41
			c-0.59,1.93-1.66,3.66-3.27,5.21c-1.58,1.55-4.01,2.32-7.27,2.32c3.02,0.24,4.83,1.72,5.46,4.39c0.63,2.67,0.39,5.85-0.69,9.53
			l-13.42,45.26h-21.08l14.54-49.16c0.33-1.17,0.3-2.1-0.13-2.76c-0.41-0.68-1.3-1.01-2.64-1.01h-6.27l-15.68,52.91h-21.08
			l31.72-107.84h21.08L765,234.34h7.51V234.35z"/>
            <path d="M847.25,195.72l-26.09,88.41h11.28l-5.77,19.44h-41.99l5.64-19.44h9.66l26.09-88.41H847.25z M814.27,192.72l7.52-18.19h43
			l-5.4,18.19H814.27z"/>
            <path d="M912.95,210.14l-20.81,4.76l7.03-23.69h-7.27c-1.17,0-2.02,0.18-2.58,0.56c-0.54,0.38-0.99,1.16-1.31,2.32l-25.08,85.53
			c-0.5,1.66-0.41,2.84,0.24,3.51c0.68,0.68,1.75,1.01,3.27,1.01h22.82l-10.54,19.44h-24.58c-2.43,0-4.66-0.35-6.71-1.07
			c-2.05-0.71-3.76-1.81-5.14-3.33c-1.39-1.51-2.28-3.45-2.69-5.84c-0.41-2.37-0.13-5.25,0.87-8.59l29.46-100.56
			c1.17-3.84,2.87-6.41,5.08-7.72c2.21-1.3,5.08-1.95,8.59-1.95h39.87L912.95,210.14z"/>
            <path d="M948.93,296.16l3.38-11.28H922.6l-30.1,41.5h-24.94l111.73-151.86H1006l-29.6,101.19l-14.79-22.57l10.03-34.74
			l-36.49,49.91h21.94l3.38-11.16l13.54,20.45L948.93,296.16z M967.99,303.56H946.8l0.87-2.76l27.34-20.45L967.99,303.56z"/>
        </g>
    </g>
</svg>